<svg xmlns="http://www.w3.org/2000/svg" xmlns:xlink="http://www.w3.org/1999/xlink" fill="none" version="1.1" width="98.25" height="49" viewBox="0 0 98.25 49"><defs><clipPath id="master_svg0_18_3188"><rect x="0" y="0" width="98.25" height="49" rx="0"/></clipPath><clipPath id="master_svg1_18_3193"><rect x="37.4000244140625" y="6" width="24" height="24" rx="0"/></clipPath></defs><g clip-path="url(#master_svg0_18_3188)"><g><path d="M39.244,38.988L38.32,38.988L38.32,38.496L37.984,38.903999999999996L37.372,38.052Q38.403999999999996,36.876,39.316,35.22L40.072,35.22Q41.176,36.3,42.232,37.548L41.524,38.316Q40.456,36.972,39.796,36.312Q39.328,37.14,38.728,37.968L41.236,37.968L41.236,38.988L40.312,38.988L40.312,40.068L41.74,40.068L41.74,41.124L40.312,41.124L40.312,44.4Q41.08,44.232,41.956,43.980000000000004L41.956,45.06Q40.012,45.612,37.78,45.996L37.504,44.903999999999996Q38.308,44.808,39.244,44.628L39.244,41.124L37.816,41.124L37.816,40.068L39.244,40.068L39.244,38.988ZM38.416,41.544Q38.752,42.744,38.968,43.944L38.128,44.147999999999996Q37.912,42.996,37.564,41.832L38.416,41.544ZM41.908,41.688Q41.704,42.876,41.308,43.824L40.504,43.512Q40.792,42.732,41.044,41.448L41.908,41.688ZM47.932,36.06L48.076,37.032L44.692,37.62Q44.752,37.788,44.86,37.980000000000004Q45.028,38.268,45.124,38.388Q46.072,37.92,46.768,37.272L47.524,37.836Q46.804,38.556,45.808,39.12L45.928,39.204Q46.564,39.612,46.96,39.612Q47.236000000000004,39.576,47.5,38.664L48.388,39.252Q47.812,40.632,47.068,40.632Q46.348,40.632,45.544,40.14Q45.16,39.888,44.848,39.588Q43.744,40.056,42.34,40.38L41.92,39.456Q43.168,39.204,44.2,38.808Q44.056,38.592,44.08,38.64Q43.828,38.256,43.66,37.8L42.34,38.028L42.196,37.056L43.336,36.864Q43.168,36.275999999999996,42.964,35.328L44.032,35.22Q44.176,36.012,44.356,36.684L45.664,36.456Q45.4,36.168,44.752,35.604L45.484,35.148Q46.132,35.688,46.456,36.06L45.964,36.408L47.932,36.06ZM48.052,41.172L48.208,42.192L46.996,42.444L47.74,42.984Q46.996,43.836,45.928,44.496Q45.988,44.568,46.036,44.604Q46.588,45.048,46.96,45.048Q47.308,45.012,47.608000000000004,43.752L48.507999999999996,44.352000000000004Q47.872,46.092,47.068,46.092Q46.372,46.092,45.652,45.552Q45.292,45.288,45.028,44.988Q43.888,45.528,42.532,45.888L42.112,44.94Q43.42,44.628,44.428,44.172Q44.344,44.064,44.284,43.932Q44.116,43.608000000000004,43.924,43.116L42.22,43.488L42.064,42.480000000000004L43.624,42.144Q43.444,41.472,43.24,40.368L44.32,40.26Q44.464,41.196,44.644,41.916L45.604,41.712Q45.232,41.208,44.728,40.716L45.4,40.284Q46.012,40.872,46.288,41.268L45.688,41.688L48.052,41.172ZM44.932,42.9L45.076,43.26Q45.147999999999996,43.428,45.316,43.716Q46.228,43.188,46.912,42.468L44.932,42.9ZM56.704,38.736L56.704,42.588L52.432,42.588L52.432,44.544Q52.432,45.012,52.984,45.012L58.504000000000005,45.012Q58.888000000000005,44.976,59.019999999999996,44.7Q59.116,44.496,59.224000000000004,43.403999999999996L60.304,43.752Q60.196,44.808,60.028,45.3Q59.775999999999996,46.044,58.864000000000004,46.08L52.516,46.08Q51.292,46.08,51.292,44.988L51.292,39.096000000000004Q50.872,39.6,50.476,39.972L49.684,39.012Q51.268,37.572,52.384,35.052L53.536,35.316Q53.379999999999995,35.676,53.068,36.348L59.632000000000005,36.348Q59.632000000000005,40.992000000000004,59.44,42.18Q59.260000000000005,43.308,57.952,43.308L57.196,43.26L56.92,42.24Q57.484,42.3,57.784,42.3Q58.263999999999996,42.3,58.336,41.676Q58.432,41.1,58.468,37.44L52.468,37.44Q51.988,38.208,51.58,38.736L56.704,38.736ZM52.432,41.556L55.552,41.556L55.552,39.768L52.432,39.768L52.432,41.556Z" fill="#42B883" fill-opacity="1"/></g><g clip-path="url(#master_svg1_18_3193)"><g><path d="M61.2294244140625,15.15922L61.2294244140625,24.907Q61.2294244140625,27.0127,59.7358244140625,28.5064Q58.2422244140625,30,56.1364244140625,30L42.4930644140625,30Q40.3872844140625,30,38.8936544140625,28.5064Q37.4000244140625,27.0128,37.4000244140625,24.907L37.4000244140625,15.16209Q37.4000244140625,13.05629,38.8936544140625,11.56267Q40.3872744140625,10.069040000000001,42.4930644140625,10.069040000000001L42.7503544140625,10.069040000000001Q42.9292844140625,9.70924,43.3072444140625,9.53232L49.8296244140625,6.488013Q51.7360244140625,5.6029,53.7220244140625,6.323123Q55.7065244140625,7.04556,56.5980244140625,8.95231L57.1378244140625,10.11084Q57.152724414062504,10.14353,57.164424414062495,10.18683Q58.8722244140625,10.53407,60.0177244140625,11.87778Q61.2274244140625,13.296759999999999,61.2294244140625,15.15922ZM54.4833244140625,10.069040000000001L47.8067244140625,10.069040000000001L50.8401244140625,8.65483Q51.8467244140625,8.18531,52.9070244140625,8.5702Q53.961824414062505,8.95443,54.434124414062495,9.96334L54.4833244140625,10.069040000000001ZM58.0472244140625,13.25126Q58.7614244140625,13.965399999999999,58.8324244140625,14.9428L54.8536244140625,14.9428Q52.7478244140625,14.94279,51.2541244140625,16.4364Q49.7605244140625,17.9301,49.7605244140625,20.035800000000002Q49.7605244140625,22.1416,51.2541244140625,23.6353Q52.7478244140625,25.1289,54.8536244140625,25.1289L58.8324244140625,25.1289Q58.7614244140625,26.1063,58.0472244140625,26.8204Q57.2541244140625,27.6135,56.1364244140625,27.6135L42.4930644140625,27.6135Q41.3753244140625,27.6135,40.5822344140625,26.8204Q39.7891644140625,26.0273,39.7891544140625,24.9096L39.7891544140625,15.16209Q39.7891544140625,14.04434,40.5822344140625,13.25126Q41.3753244140625,12.458169999999999,42.4930644140625,12.458179999999999L56.1364244140625,12.458179999999999Q57.2541244140625,12.458169999999999,58.0472244140625,13.25126ZM54.8536244140625,17.331899999999997L58.8403244140625,17.331899999999997L58.8403244140625,22.7397L54.8536244140625,22.7397Q53.7358244140625,22.7397,52.942724414062496,21.9467Q52.1496244140625,21.1536,52.1496244140625,20.035800000000002Q52.1496244140625,18.918100000000003,52.942724414062496,18.125Q53.7358244140625,17.331899999999997,54.8536244140625,17.331899999999997ZM54.7090244140625,21.9696C55.7848244140625,21.9696,56.6569244140625,21.0975,56.6569244140625,20.0217C56.6569244140625,18.9459,55.7848244140625,18.0738,54.7090244140625,18.0738C53.6332244140625,18.0738,52.761024414062504,18.9459,52.761024414062504,20.0217C52.761024414062504,21.0975,53.6332244140625,21.9696,54.7090244140625,21.9696Z" fill-rule="evenodd" fill="#42B883" fill-opacity="1"/></g></g></g></svg>