<svg xmlns="http://www.w3.org/2000/svg" xmlns:xlink="http://www.w3.org/1999/xlink" fill="none" version="1.1" width="98.25" height="49" viewBox="0 0 98.25 49"><defs><clipPath id="master_svg0_18_05078"><rect x="0" y="0" width="98.25" height="49" rx="0"/></clipPath><clipPath id="master_svg1_18_05083"><rect x="37" y="6" width="24" height="24" rx="0"/></clipPath></defs><g clip-path="url(#master_svg0_18_05078)"><g><path d="M37.864,35.556L41.536,35.556L41.536,43.08L37.864,43.08L37.864,35.556ZM40.504,42.072L40.504,40.812L38.92,40.812L38.92,42.072L40.504,42.072ZM38.92,39.864L40.504,39.864L40.504,38.676L38.92,38.676L38.92,39.864ZM38.92,37.74L40.504,37.74L40.504,36.564L38.92,36.564L38.92,37.74ZM40.78,43.296Q41.608,44.496,42.016,45.336L41.176,45.924Q40.708,44.928,39.94,43.812L40.78,43.296ZM39.388,43.752Q38.956,44.964,38.296,46.104L37.372,45.624Q38.092,44.448,38.476,43.32L39.388,43.752ZM48.052,35.472L48.052,36.516L43.792,36.516L43.792,37.2L47.596000000000004,37.2L47.596000000000004,38.208L43.792,38.208L43.792,38.94L47.644,38.94L47.644,39.936L43.792,39.936L43.792,40.692L48.436,40.692L48.436,41.724000000000004L45.916,41.724000000000004Q46.024,42.516,46.36,43.2Q46.948,42.768,47.5,42.036L48.232,42.78Q47.632,43.572,46.912,44.028Q47.548,44.784,48.58,45.228L47.944,46.152Q45.268,44.844,44.944,41.724000000000004L43.72,41.724000000000004L43.72,44.868Q44.596000000000004,44.544,45.316,44.124L45.519999999999996,45.144Q44.32,45.756,42.76,46.152L42.304,45.192Q42.64,45,42.64,44.664L42.64,41.724000000000004L41.872,41.724000000000004L41.872,40.692L42.712,40.692L42.712,35.472L48.052,35.472ZM49.864000000000004,35.556L53.391999999999996,35.556L53.391999999999996,39.108L49.864000000000004,39.108L49.864000000000004,35.556ZM52.336,38.16L52.336,36.504L50.92,36.504L50.92,38.16L52.336,38.16ZM50.524,41.04L49.432,41.04L49.432,39.996L53.596000000000004,39.996L53.596000000000004,41.04L51.58,41.04L51.28,42.228L53.332,42.228Q53.224000000000004,45.084,52.864000000000004,45.624Q52.492000000000004,46.14,51.472,46.14Q51.016,46.14,50.536,46.056L50.188,45.096000000000004Q50.8,45.192,51.256,45.192Q51.88,45.192,52.048,44.844Q52.192,44.484,52.263999999999996,43.176L50.056,43.176L50.524,41.04ZM57.22,38.304L57.22,39.096000000000004L58.672,38.916L58.792,39.708L57.22,39.9L57.22,40.14Q57.22,40.572,57.604,40.572L58.480000000000004,40.572Q58.72,40.572,58.828,40.464Q58.96,40.332,59.019999999999996,39.624L59.992000000000004,39.936Q59.872,41.028,59.56,41.268Q59.248000000000005,41.46,58.672,41.46L57.304,41.46Q56.176,41.46,56.176,40.368L56.176,40.032L55.132000000000005,40.152L55.132000000000005,40.944Q55.132000000000005,44.052,54.016,46.248L53.2,45.54Q54.088,43.704,54.123999999999995,40.956L54.123999999999995,37.344L56.164,37.344L56.164,35.148L57.256,35.148L57.256,35.772L59.775999999999996,35.772L59.775999999999996,36.672L57.256,36.672L57.256,37.344L60.28,37.344L60.28,37.836Q60.147999999999996,38.688,59.872,39.444L58.9,39.168Q59.092,38.736,59.212,38.304L57.22,38.304ZM56.176,39.228L56.176,38.304L55.132000000000005,38.304L55.132000000000005,39.348L56.176,39.228ZM59.056,42L59.056,44.964Q59.056,45.12,59.236000000000004,45.12L59.403999999999996,45.12Q59.548,45.12,59.584,45.036Q59.656,44.964,59.763999999999996,43.704L60.652,43.992000000000004Q60.544,45.348,60.364000000000004,45.708Q60.172,46.044,59.632000000000005,46.044L59.104,46.044Q58.048,46.044,58.048,45.096000000000004L58.048,42.96L56.836,42.96Q56.812,44.016,56.68,44.519999999999996Q56.428,45.468,55.66,46.308L54.856,45.588Q55.564,44.844,55.744,44.004Q55.828,43.488,55.852000000000004,42L59.056,42Z" fill="#42B883" fill-opacity="1"/></g><g clip-path="url(#master_svg1_18_05083)"><g><path d="M40.10274,29.965C40.23717,29.988,40.37328,29.9997,40.50965,30L56.5882,29.9992C57.979,29.9992,59.1075,28.8736,59.1111,27.4829C59.1109,27.3367,59.098299999999995,27.1908,59.0736,27.0467C58.5086,23.8104,56.4798,21.0168,53.5771,19.4782C56.890299999999996,16.6086,57.132000000000005,11.55184,54.1075,8.37936C51.083,5.20688,46.02054,5.20688,42.99605,8.37936C39.97157,11.55184,40.21323,16.6086,43.52647,19.4782C40.62393,21.021,38.597223,23.8185,38.0356448,27.0572C37.803578,28.431,38.729012,29.7328,40.10274,29.965ZM43.41662,12.16481C44.08494,9.89072,46.16933,8.327,48.5396,8.32154C48.9212,8.32165,49.3018,8.3623,49.6749,8.4428C51.7893,8.89917,53.421,10.58353,53.8101,12.71135C54.199200000000005,14.83917,53.2691,16.992,51.453,18.167099999999998C51.3987,18.2018,51.3475,18.241300000000003,51.3,18.2851C50.3088,19.1059,50.546,20.6864,51.7346,21.1798C54.3886,22.2693,56.295,24.648,56.7803,27.4755C56.7808,27.5281,56.760000000000005,27.5786,56.7225,27.6155C56.6811,27.6493,56.6302,27.6692,56.5768,27.6725L40.48523,27.6725C40.433,27.6642,40.38648,27.6348,40.35665,27.5911C40.327420000000004,27.5513,40.31486,27.5017,40.32166,27.4528C40.81335,24.6325,42.71866,22.2622,45.36732,21.175800000000002C45.95125,20.9322,46.35284,20.386,46.41115,19.756C46.46946,19.125999999999998,46.17495,18.5153,45.64565,18.1687C43.65523,16.881700000000002,42.7483,14.43891,43.41662,12.16481ZM47.36108,26.6356L48.5777,27.5072L49.7431,26.708L49.2345,21.4271C49.2345,21.0644,48.9405,20.770400000000002,48.5777,20.770400000000002C48.215,20.770400000000002,47.92099,21.0644,47.92099,21.4271L47.36108,26.6356Z" fill-rule="evenodd" fill="#42B883" fill-opacity="1"/></g></g></g></svg>