<svg xmlns="http://www.w3.org/2000/svg" xmlns:xlink="http://www.w3.org/1999/xlink" fill="none" version="1.1" width="98.25" height="49" viewBox="0 0 98.25 49"><defs><clipPath id="master_svg0_3_2915"><rect x="0" y="0" width="98.25" height="49" rx="0"/></clipPath><clipPath id="master_svg1_3_2922"><rect x="37" y="6" width="24" height="24" rx="0"/></clipPath></defs><g clip-path="url(#master_svg0_3_2915)"><g><path d="M41.884,35.568L47.956,35.568L47.956,41.304L45.496,41.304L45.496,42.504L48.112,42.504L48.112,43.56L45.496,43.56L45.496,44.808L48.532,44.808L48.532,45.9L41.272,45.9L41.272,44.808L44.368,44.808L44.368,43.56L41.74,43.56L41.74,42.504L44.368,42.504L44.368,41.304L41.884,41.304L41.884,35.568ZM46.864000000000004,40.296L46.864000000000004,38.928L45.496,38.928L45.496,40.296L46.864000000000004,40.296ZM44.368,40.296L44.368,38.928L42.976,38.928L42.976,40.296L44.368,40.296ZM42.976,37.944L44.368,37.944L44.368,36.576L42.976,36.576L42.976,37.944ZM45.496,36.576L45.496,37.944L46.864000000000004,37.944L46.864000000000004,36.576L45.496,36.576ZM37.744,39.516L38.932,39.516L38.932,36.948L37.564,36.948L37.564,35.868L41.44,35.868L41.44,36.948L40.084,36.948L40.084,39.516L41.296,39.516L41.296,40.608000000000004L40.084,40.608000000000004L40.084,43.007999999999996Q40.84,42.744,41.272,42.552L41.272,43.656Q39.568,44.328,37.732,44.76L37.456,43.668Q38.14,43.548,38.932,43.356L38.932,40.608000000000004L37.744,40.608000000000004L37.744,39.516ZM54.856,38.436L54.856,37.392L58.024,37.392L58.024,35.232L59.128,35.232L59.128,37.392L60.484,37.392L60.484,38.436L59.128,38.436L59.128,44.844Q59.128,46.128,57.879999999999995,46.128L56.488,46.128L56.260000000000005,45.072Q56.908,45.144,57.507999999999996,45.144Q58.024,45.144,58.024,44.568L58.024,39.216Q57.016,42.42,54.916,44.58L54.292,43.548Q56.428,41.58,57.4,38.436L54.856,38.436ZM50.104,35.568L54.364000000000004,35.568L54.364000000000004,43.056L50.104,43.056L50.104,35.568ZM53.260000000000005,42.048L53.260000000000005,40.824L51.208,40.824L51.208,42.048L53.260000000000005,42.048ZM51.208,39.888L53.260000000000005,39.888L53.260000000000005,38.724000000000004L51.208,38.724000000000004L51.208,39.888ZM51.208,37.775999999999996L53.260000000000005,37.775999999999996L53.260000000000005,36.576L51.208,36.576L51.208,37.775999999999996ZM53.464,43.308Q54.34,44.519999999999996,54.748000000000005,45.312L53.896,45.924Q53.464,45.048,52.624,43.824L53.464,43.308ZM51.868,43.86Q51.388,44.952,50.56,46.104L49.612,45.612Q50.452,44.472,50.944,43.428L51.868,43.86Z" fill="#42B883" fill-opacity="1"/></g><g clip-path="url(#master_svg1_3_2922)"><g><path d="M49.0057,6.00000154779C41.72973,5.9963603,36.125344,12.41788,37.113178,19.6265C38.10101,26.8351,45.2263,31.5122,52.2331,29.5513C52.8725,29.3724,53.2458,28.709,53.066900000000004,28.0696C52.888,27.4302,52.2246,27.0569,51.5852,27.2358C46.14785,28.7529,40.58176,25.2728,39.56469,19.720100000000002C38.54762,14.16744,42.51883,8.940380000000001,48.1409,8.431750000000001C53.763000000000005,7.92312,58.6078,12.35259,58.6038,17.9976C58.6095,20.1164,57.908699999999996,22.1766,56.6122,23.8525L53.2529,20.5411L55.3645,18.4295C56.066199999999995,17.7269,56.066199999999995,16.5887,55.3645,15.88604L51.1293,11.63888C50.416399999999996,10.96244,49.2987,10.96244,48.5858,11.63888L42.58699,17.637700000000002C41.885239999999996,18.3403,41.885239999999996,19.4786,42.58699,20.1812L46.882130000000004,24.3564C47.5848,25.0581,48.723,25.0581,49.4256,24.3564L51.5492,22.2328L55.8324,26.396C56.3003,26.8611,57.0561,26.8611,57.524,26.396C60.8993,22.9526,61.8852,17.8231,60.027,13.3738C58.1687,8.9245,53.8274,6.0199354,49.0057,6.00000154779ZM48.1539,22.2448L44.75856,18.8495L49.8455,13.76246L53.240899999999996,17.1578L48.1539,22.2448Z" fill="#42B883" fill-opacity="1"/></g></g></g></svg>