<svg xmlns="http://www.w3.org/2000/svg" xmlns:xlink="http://www.w3.org/1999/xlink" fill="none" version="1.1" width="98.25" height="49" viewBox="0 0 98.25 49"><defs><clipPath id="master_svg0_18_2113"><rect x="0" y="0" width="98.25" height="49" rx="0"/></clipPath><clipPath id="master_svg1_18_2118"><rect x="36.699951171875" y="6" width="24" height="24" rx="0"/></clipPath></defs><g clip-path="url(#master_svg0_18_2113)"><g><path d="M29.128,40.763999999999996L21.688,40.763999999999996L21.688,44.064Q21.688,44.748,22.372,44.748L28.36,44.748Q28.695999999999998,44.748,28.948,44.532Q29.224,44.268,29.332,42.372L30.448,42.732Q30.232,45,29.848,45.42Q29.416,45.816,28.683999999999997,45.852000000000004L22.06,45.852000000000004Q20.536,45.852000000000004,20.536,44.268L20.536,38.028L21.688,38.028L21.688,39.672L27.964,39.672L27.964,36.816L20.044,36.816L20.044,35.724000000000004L29.128,35.724000000000004L29.128,40.763999999999996ZM36.448,35.208L37.6,35.208L37.6,36.9L41.403999999999996,36.9L41.403999999999996,43.775999999999996L40.288,43.775999999999996L40.288,43.14L37.6,43.14L37.6,46.176L36.448,46.176L36.448,43.14L33.712,43.14L33.712,43.86L32.596000000000004,43.86L32.596000000000004,36.9L36.448,36.9L36.448,35.208ZM33.712,42.06L36.448,42.06L36.448,40.512L33.712,40.512L33.712,42.06ZM37.6,42.06L40.288,42.06L40.288,40.512L37.6,40.512L37.6,42.06ZM33.712,39.492L36.448,39.492L36.448,37.968L33.712,37.968L33.712,39.492ZM37.6,39.492L40.288,39.492L40.288,37.968L37.6,37.968L37.6,39.492ZM43.84,35.556L47.248000000000005,35.556L47.248000000000005,43.032L43.84,43.032L43.84,35.556ZM46.228,42.084L46.228,40.74L44.872,40.74L44.872,42.084L46.228,42.084ZM44.872,39.828L46.228,39.828L46.228,38.568L44.872,38.568L44.872,39.828ZM44.872,37.668L46.228,37.668L46.228,36.504L44.872,36.504L44.872,37.668ZM46.528,43.296Q47.284,44.507999999999996,47.656,45.348L46.84,45.912Q46.444,44.976,45.736000000000004,43.788L46.528,43.296ZM45.328,43.728Q44.932,44.952,44.284,46.092L43.408,45.635999999999996Q44.068,44.507999999999996,44.476,43.32L45.328,43.728ZM49.18,35.16L50.224000000000004,35.16L50.224000000000004,35.976L51.832,35.976L51.832,35.16L52.888,35.16L52.888,35.976L54.232,35.976L54.232,36.864L52.888,36.864L52.888,37.488L54.004,37.488L54.004,38.34L52.888,38.34L52.888,38.976L54.472,38.976L54.472,39.864L51.532,39.864L51.532,40.44L53.896,40.44L53.896,43.428L54.508,43.428L54.508,44.352000000000004L53.896,44.352000000000004L53.896,45.263999999999996Q53.896,46.188,52.816,46.188L51.868,46.188L51.628,45.263999999999996L52.516,45.3Q52.864,45.3,52.864,45.036L52.864,44.352000000000004L49.168,44.352000000000004L49.168,46.2L48.135999999999996,46.2L48.135999999999996,44.352000000000004L47.464,44.352000000000004L47.464,43.428L48.135999999999996,43.428L48.135999999999996,40.44L50.476,40.44L50.476,39.864L47.584,39.864L47.584,38.976L49.18,38.976L49.18,38.34L48.064,38.34L48.064,37.488L49.18,37.488L49.18,36.864L47.824,36.864L47.824,35.976L49.18,35.976L49.18,35.16ZM49.168,43.428L50.476,43.428L50.476,42.732L49.168,42.732L49.168,43.428ZM51.532,43.428L52.864,43.428L52.864,42.732L51.532,42.732L51.532,43.428ZM50.224000000000004,38.976L51.832,38.976L51.832,38.34L50.224000000000004,38.34L50.224000000000004,38.976ZM50.224000000000004,37.488L51.832,37.488L51.832,36.864L50.224000000000004,36.864L50.224000000000004,37.488ZM52.864,41.964L52.864,41.28L51.532,41.28L51.532,41.964L52.864,41.964ZM50.476,41.28L49.168,41.28L49.168,41.964L50.476,41.964L50.476,41.28ZM58.312,36.864L56.14,36.864L56.14,35.928L60.664,35.928Q60.46,35.532,60.304,35.256L61.468,35.064Q61.648,35.436,61.828,35.928L65.884,35.928L65.884,36.864L64.012,36.864L64.468,37.176Q63.724,37.584,62.788,37.944Q64.084,38.316,65.116,38.664L64.576,39.204L65.944,39.204L65.944,40.164L57.508,40.164L57.508,41.412Q57.496,41.832,57.448,42.564Q58.516,41.736000000000004,59.056,40.38L59.944,40.74L59.716,41.268L61.516,41.268L61.516,40.416L62.62,40.416L62.62,41.268L65.632,41.268L65.632,42.263999999999996L62.62,42.263999999999996L62.62,43.14L65.392,43.14L65.392,44.124L62.62,44.124L62.62,44.988L66.244,44.988L66.244,45.972L57.532,45.972L57.532,44.988L61.516,44.988L61.516,44.124L58.756,44.124L58.756,43.14L61.516,43.14L61.516,42.263999999999996L59.128,42.263999999999996Q58.72,42.84,58.168,43.296L57.436,42.66Q57.22,44.82,56.356,46.26L55.516,45.504Q56.38,44.028,56.416,41.412L56.416,39.204L64.096,39.204Q63.016,38.808,61.528,38.376Q59.776,38.892,57.58,39.156L57.052,38.448Q58.576,38.28,60.052,37.968Q58.972,37.68,57.748,37.392L58.312,36.864ZM58.564,36.864Q60.232,37.248,61.492,37.596000000000004Q62.5,37.284,63.376,36.864L58.564,36.864ZM69.592,35.568L76.408,35.568L76.408,39.756L69.592,39.756L69.592,35.568ZM75.268,38.676L75.268,36.647999999999996L70.732,36.647999999999996L70.732,38.676L75.268,38.676ZM72.424,40.656L72.424,46.056L71.32,46.056L71.32,45.480000000000004L69.1,45.480000000000004L69.1,46.056L67.98400000000001,46.056L67.98400000000001,40.656L72.424,40.656ZM69.1,44.412L71.32,44.412L71.32,41.736000000000004L69.1,41.736000000000004L69.1,44.412ZM78.01599999999999,40.656L78.01599999999999,46.056L76.876,46.056L76.876,45.480000000000004L74.56,45.480000000000004L74.56,46.056L73.444,46.056L73.444,40.656L78.01599999999999,40.656ZM74.56,44.412L76.876,44.412L76.876,41.736000000000004L74.56,41.736000000000004L74.56,44.412Z" fill="#42B883" fill-opacity="1"/></g><g clip-path="url(#master_svg1_18_2118)"><g><path d="M49.042951171875,6C46.391441171875,6,44.243421171875,8.15007,44.241751171875,10.79815L43.700721171875,10.79815C41.280011171875,10.79815,39.236471171875,12.600539999999999,38.936591171875,15.0027L37.737050071875,24.6021C37.712317371875,24.7999,37.699951171875,25.0009,37.699951171875,25.1988C37.699951171875,27.8513,39.851701171875,30,42.501191171875,30L55.628051171875,30C55.829051171875,30,56.026851171874995,29.9876,56.224751171875,29.9629C58.855651171874996,29.6352,60.719951171874996,27.2361,60.392251171875,24.6052L59.192651171875,15.0058C58.889651171875,12.603629999999999,56.849251171875,10.80124,54.428551171875,10.80124L53.844251171875,10.80124C53.844251171875,8.14865,51.692451171875,6,49.042951171875,6ZM49.039851171875,8.40216C50.363051171875,8.40216,51.438951171875004,9.47495,51.438951171875004,10.80124L46.640821171875004,10.80124C46.640821171875004,9.47495,47.716651171875,8.40216,49.039851171875,8.40216ZM43.895481171875,13.194569999999999L54.227651171874996,13.194569999999999C55.402451171875,13.194569999999999,56.404051171875,14.0505,56.595751171875,15.20675L58.190951171875,24.8061C58.410451171874996,26.1139,57.526351171875,27.3505,56.218551171875,27.5669C56.085651171875,27.5886,55.955751171875,27.6009,55.822851171875,27.6009L42.290961171875,27.6009C40.967761171875,27.6009,39.891891171875,26.5281,39.891891171875,25.2019C39.891891171875,25.0689,39.904251171875,24.936,39.925891171875,24.8061L41.527341171875,15.20675C41.722111171875,14.0474,42.723771171875,13.194569999999999,43.895481171875,13.194569999999999ZM46.361481171875,24.2196C46.582151171875,24.4402,46.913171171875,24.5506,47.244181171875,24.5506L47.795851171875,24.4402L54.416151171875,17.82C54.857551171875,17.3786,54.857551171875,16.7166,54.416151171875,16.275199999999998C53.974751171875,15.83387,53.312751171875,15.83387,52.871451171875,16.275199999999998L47.244181171875,21.9025L45.258101171875,19.9164C44.816751171875,19.475,44.154721171874996,19.475,43.713371171874996,19.9164C43.272021171875,20.3577,43.272021171875,21.0198,43.713371171874996,21.461100000000002L46.361481171875,24.2196Z" fill-rule="evenodd" fill="#42B883" fill-opacity="1"/></g></g></g></svg>